<svg xmlns="http://www.w3.org/2000/svg" version="1.1" xmlns:xlink="http://www.w3.org/1999/xlink" xmlns:svgjs="http://svgjs.dev/svgjs" width="1000" height="1000" viewBox="0 0 1000 1000"><rect width="1000" height="1000" fill="#000000"></rect><g transform="matrix(0.7,0,0,0.7,149.84897959183667,150.19913061224486)"><svg viewBox="0 0 343 343" data-background-color="#dedede" preserveAspectRatio="xMidYMid meet" height="999" width="1000" xmlns="http://www.w3.org/2000/svg" xmlns:xlink="http://www.w3.org/1999/xlink"><g id="tight-bounds" transform="matrix(1,0,0,1,0.0740000000000407,0.07400000000001228)"><svg viewBox="0 0 342.85155851775386 342.85155851775386" height="342.85155851775386" width="342.85155851775386"><g><svg></svg></g><g><svg viewBox="0 0 342.85155851775386 342.85155851775386" height="342.85155851775386" width="342.85155851775386"><g><path d="M0 171.426c0-94.676 76.75-171.426 171.426-171.426 94.676 0 171.426 76.75 171.426 171.426 0 94.676-76.75 171.426-171.426 171.426-94.676 0-171.426-76.75-171.426-171.426zM171.426 338.44c92.239 0 167.014-74.775 167.014-167.014 0-92.239-74.775-167.014-167.014-167.014-92.239 0-167.014 74.775-167.014 167.014 0 92.239 74.775 167.014 167.014 167.014z" data-fill-palette-color="tertiary" fill="#ffffff" stroke="transparent"></path><ellipse rx="164.56874808852186" ry="164.56874808852186" cx="171.42577925887693" cy="171.42577925887693" fill="#ffffff" stroke="transparent" stroke-width="0" fill-opacity="1" data-fill-palette-color="tertiary"></ellipse></g><g transform="matrix(1,0,0,1,64.84655864529837,126.07577486263256)"><svg viewBox="0 0 213.1584412271571 90.70000879248875" height="90.70000879248875" width="213.1584412271571"><g><svg viewBox="0 0 213.1584412271571 90.70000879248875" height="90.70000879248875" width="213.1584412271571"><g><svg viewBox="0 0 213.1584412271571 90.70000879248875" height="90.70000879248875" width="213.1584412271571"><g><svg viewBox="0 0 213.1584412271571 90.70000879248875" height="90.70000879248875" width="213.1584412271571"><g id="textblocktransform"><svg viewBox="0 0 213.1584412271571 90.70000879248875" height="90.70000879248875" width="213.1584412271571" id="textblock"><g><svg viewBox="0 0 213.1584412271571 48.91925077099792" height="48.91925077099792" width="213.1584412271571"><g transform="matrix(1,0,0,1,0,0)"><svg width="213.1584412271571" viewBox="2.5 -33.5 148.13999938964844 34" height="48.91925077099792" data-palette-color="#dedede"><path d="M2.5-33L20.4-33Q26.85-33 30.3-30.13 33.75-27.25 33.75-22.5L33.75-22.5Q33.75-17.05 30.38-14.3 27-11.55 20.55-11.55L20.55-11.55 19.4-10.95 13.9-10.95 13.9 0 2.5 0 2.5-33ZM13.9-18.6L18.4-18.6Q20.25-18.6 21.18-19.28 22.1-19.95 22.1-21.65L22.1-21.65Q22.1-23.3 21.18-24 20.25-24.7 18.4-24.7L18.4-24.7 13.9-24.7 13.9-18.6ZM15.25-14.45L25.3-16.15 35.6 0 22.95 0 15.25-14.45ZM52.2-33.5L52.2-33.5Q56.95-33.5 60.72-32.33 64.5-31.15 67.4-28.8L67.4-28.8 62.7-21.3Q60.35-22.95 57.77-23.95 55.2-24.95 52.2-24.95L52.2-24.95Q50.9-24.95 50.12-24.75 49.35-24.55 49.02-24.2 48.7-23.85 48.7-23.4L48.7-23.4Q48.7-22.8 49.62-22.5 50.55-22.2 51.95-21.85L51.95-21.85 56.5-20.8Q61.55-19.65 64.12-17.4 66.7-15.15 66.7-11.15L66.7-11.15Q66.7-7.15 64.75-4.58 62.8-2 59.47-0.75 56.15 0.5 51.95 0.5L51.95 0.5Q48.8 0.5 45.65-0.08 42.5-0.65 39.8-1.78 37.1-2.9 35.15-4.5L35.15-4.5 39.75-12.15Q41.2-11 43.25-10.08 45.3-9.15 47.5-8.6 49.7-8.05 51.6-8.05L51.6-8.05Q52.8-8.05 53.5-8.25 54.2-8.45 54.47-8.78 54.75-9.1 54.75-9.55L54.75-9.55Q54.75-10.25 54.17-10.6 53.6-10.95 52.1-11.3L52.1-11.3 47.1-12.4Q44.45-13 42.05-14 39.65-15 38.15-16.93 36.65-18.85 36.65-22.15L36.65-22.15Q36.65-25.55 38.47-28.1 40.3-30.65 43.77-32.08 47.25-33.5 52.2-33.5ZM97.05-33L112.55-33 112.55 0 102.4 0 102.4-11.45 102.55-22.55 102.4-22.55 96 0 86.7 0 80.4-22.55 80.2-22.55 80.35-11.45 80.35 0 70.15 0 70.15-33 86.45-33 90.25-18.35 91.7-12.2 91.8-12.2 93.25-18.35 97.05-33ZM117.54-33L135.44-33Q141.89-33 145.34-30.13 148.79-27.25 148.79-22.5L148.79-22.5Q148.79-17.05 145.42-14.3 142.04-11.55 135.59-11.55L135.59-11.55 134.44-10.95 128.94-10.95 128.94 0 117.54 0 117.54-33ZM128.94-18.6L133.44-18.6Q135.29-18.6 136.22-19.28 137.14-19.95 137.14-21.65L137.14-21.65Q137.14-23.3 136.22-24 135.29-24.7 133.44-24.7L133.44-24.7 128.94-24.7 128.94-18.6ZM130.29-14.45L140.34-16.15 150.64 0 137.99 0 130.29-14.45Z" opacity="1" transform="matrix(1,0,0,1,0,0)" fill="#000000" class="undefined-text-0" data-fill-palette-color="quaternary" id="text-0"></path></svg></g></svg></g><g transform="matrix(1,0,0,1,0,60.46791181601203)"><svg viewBox="0 0 213.1584412271571 30.23209697647672" height="30.23209697647672" width="213.1584412271571"><g transform="matrix(1,0,0,1,0,0)"><svg width="213.1584412271571" viewBox="2.5 -35.5 329.2699890136719 46.70000076293945" height="30.23209697647672" data-palette-color="#dedede"><path d="M10.45-5.1L10.45-5.1Q10.45-4 11-4L11-4Q11.3-4 13.9-5.3L13.9-5.3 14.85-3.45Q10.35 0.6 6.9 0.6L6.9 0.6Q4.75 0.6 3.63-0.85 2.5-2.3 2.5-4.45 2.5-6.6 4.93-16.23 7.35-25.85 7.6-29.45L7.6-29.45Q7.6-30.25 7.08-31.38 6.55-32.5 6-33.2L6-33.2 5.5-33.9 5.65-34.65Q8.5-35.5 15.05-35.5L15.05-35.5Q15.65-34.35 15.65-32.18 15.65-30 13.05-19.6 10.45-9.2 10.45-5.1ZM59.26 0.6Q57.39 0.6 56.24-0.73 55.09-2.05 55.09-4.33 55.09-6.6 57.16-15.65 59.24-24.7 59.24-27.2 59.24-29.7 57.29-29.7L57.29-29.7Q54.59-29.7 51.34-27.3L51.34-27.3Q50.99-24.6 49.29-17.88 47.59-11.15 47.01-7.93 46.44-4.7 46.44-2.95 46.44-1.2 46.49-0.8L46.49-0.8Q44.54 0.2 39.54 0.2L39.54 0.2 38.59 0.2Q38.59-4 40.94-14.1L40.94-14.1Q43.34-24.4 43.34-27.05 43.34-29.7 41.49-29.7L41.49-29.7Q38.79-29.7 35.19-27.1L35.19-27.1Q34.64-24.35 33.14-18.15L33.14-18.15Q29.79-3.95 29.79-0.8L29.79-0.8Q27.84 0.2 22.89 0.2L22.89 0.2 21.94 0.2Q22.14-2.05 24.59-13.03 27.04-24 27.64-29.45L27.64-29.45Q27.64-30.25 27.11-31.38 26.59-32.5 26.04-33.2L26.04-33.2 25.54-33.9 25.69-34.65Q28.49-35.5 35.34-35.5L35.34-35.5Q35.99-34.3 35.99-32.45L35.99-32.45Q35.99-32.05 35.79-30.35L35.79-30.35Q41.54-35.5 46.09-35.5L46.09-35.5Q48.14-35.5 49.54-34.1 50.94-32.7 51.34-30.45L51.34-30.45Q57.29-35.5 61.44-35.5L61.44-35.5Q64.04-35.5 65.64-33.8 67.24-32.1 67.24-29.05 67.24-26 65.11-17.43 62.99-8.85 62.99-5.45L62.99-5.45Q62.99-4 63.49-4L63.49-4Q63.94-4 65.94-5L65.94-5 66.64-5.3 67.64-3.45Q65.49-1.6 63.31-0.5 61.14 0.6 59.26 0.6ZM31.09-19.25L31.14-19.5Q31.09-19.4 31.09-19.25L31.09-19.25ZM84.17 0.6L84.17 0.6Q80.67 0.6 77.47-1.4L77.47-1.4Q75.87-2.4 74.85-4.2 73.82-6 73.82-8.35L73.82-8.35Q73.82-12.8 76.77-15.6 79.72-18.4 83.87-18.85L83.87-18.85Q81.07-19.6 79.4-21.45 77.72-23.3 77.72-26.15L77.72-26.15Q77.72-30.45 81.1-32.98 84.47-35.5 88.82-35.5 93.17-35.5 96.07-33.65 98.97-31.8 98.97-28.65L98.97-28.65Q98.97-27.55 98.6-26.5 98.22-25.45 97.82-25L97.82-25 97.47-24.5Q95.87-24.5 93.95-25.05 92.02-25.6 91.12-26.45L91.12-26.45 91.72-31.6Q90.97-32.35 89.2-32.35 87.42-32.35 86.4-30.53 85.37-28.7 85.37-26.35 85.37-24 85.92-22.8 86.47-21.6 87.47-20.95L87.47-20.95Q89.02-19.95 91.12-19.55L91.12-19.55 90.72-16.8Q87.12-16.8 84.47-14.68 81.82-12.55 81.82-9.05L81.82-9.05Q81.82-6.85 83.25-5.43 84.67-4 86.92-4L86.92-4Q91.02-4 95.32-8.15L95.32-8.15 97.32-6.3Q91.52 0.6 84.17 0.6ZM111.41-5.1L111.41-5.1Q111.41-4 111.96-4L111.96-4Q112.26-4 114.86-5.3L114.86-5.3 115.81-3.45Q111.31 0.6 107.86 0.6L107.86 0.6Q105.71 0.6 104.59-0.85 103.46-2.3 103.46-4.45 103.46-6.6 105.89-16.23 108.31-25.85 108.56-29.45L108.56-29.45Q108.56-30.25 108.04-31.38 107.51-32.5 106.96-33.2L106.96-33.2 106.46-33.9 106.61-34.65Q109.46-35.5 116.01-35.5L116.01-35.5Q116.61-34.35 116.61-32.18 116.61-30 114.01-19.6 111.41-9.2 111.41-5.1ZM140.98-35.5L140.98-35.5 157.68-34.95 162.38-35.05Q162.53-34 162.53-32.85 162.53-31.7 162.13-31.2 161.73-30.7 160.68-30.7L160.68-30.7Q160.58-30.7 153.63-31.35L153.63-31.35Q153.43-29.1 152.13-23.65 150.83-18.2 149.63-12 148.43-5.8 148.38-0.85L148.38-0.85Q146.43 0.15 140.38 0.15L140.38 0.15 140.03 0.15Q140.03-2.45 142.88-15.35 145.73-28.25 145.73-31.05L145.73-31.05Q145.73-31.25 145.63-31.75L145.63-31.75 143.63-31.75Q139.53-31.75 137.33-30.5L137.33-30.5Q136.18-32 135.93-34.9L135.93-34.9Q137.63-35.5 140.98-35.5ZM177.52-35.5Q178.27-34.25 178.27-31.65 178.27-29.05 176.15-19.65 174.02-10.25 174.02-7.73 174.02-5.2 175.87-5.2L175.87-5.2Q179.07-5.2 183.07-7.95L183.07-7.95Q183.37-9.75 184.52-15.2L184.52-15.2Q187.22-27.8 187.32-32.55L187.32-32.55Q187.32-33.4 187.22-33.95L187.22-33.95Q191.22-35.5 195.27-35.5L195.27-35.5Q195.42-35.2 195.42-34L195.42-34Q195.42-31.25 193-19.85 190.57-8.45 190.57-5.35L190.57-5.35Q190.57-4 191.02-4 191.47-4 194.07-5.3L194.07-5.3 194.97-3.45Q190.52 0.6 187.07 0.6L187.07 0.6Q185.17 0.6 183.92-0.6 182.67-1.8 182.62-4L182.62-4Q175.87 0.6 171.42 0.6L171.42 0.6Q168.97 0.6 167.5-0.98 166.02-2.55 166.02-5.3 166.02-8.05 168.07-16.82 170.12-25.6 170.12-29.45L170.12-29.45Q170.12-30.25 169.62-31.38 169.12-32.5 168.62-33.2L168.62-33.2 168.12-33.9 168.22-34.65Q170.97-35.5 177.52-35.5L177.52-35.5ZM203.01 0.25L203.01 0.25Q202.06 0.25 201.71 0.2L201.71 0.2Q202.06-2.7 204.78-14.53 207.51-26.35 207.51-29.5L207.51-29.5Q207.51-30.1 206.81-31.08 206.11-32.05 205.41-32.7L205.41-32.7 204.76-33.4 204.91-34.2Q211.76-35.5 219.41-35.5L219.41-35.5Q228.61-35.5 228.61-28.25L228.61-28.25Q228.61-24.7 226.83-21.78 225.06-18.85 221.31-17.2L221.31-17.2Q224.11-7.85 226.11-5.1L226.11-5.1Q227.01-3.95 227.51-3.95L227.51-3.95Q228.41-3.95 230.31-4.85L230.31-4.85 230.91-5.15 232.06-3.3Q230.21-1.6 227.78-0.5 225.36 0.6 223.23 0.6 221.11 0.6 219.73-1.23 218.36-3.05 217.23-6.6 216.11-10.15 214.96-15.7L214.96-15.7Q213.36-15.6 212.51-15.6L212.51-15.6Q209.96-4.65 209.71-0.8L209.71-0.8Q207.56 0.25 203.01 0.25ZM213.26-19L214.46-19Q217.46-19 219.18-21.68 220.91-24.35 220.91-28.05L220.91-28.05Q220.91-30 220.21-31.2 219.51-32.4 218.11-32.4L218.11-32.4Q217.51-32.4 216.68-32.23 215.86-32.05 215.86-32L215.86-32Q215.06-26.85 213.26-19L213.26-19ZM237.8 0.2L237.8 0.2 236.85 0.2Q237.05-2.05 239.5-13.03 241.95-24 242.55-29.45L242.55-29.45Q242.55-30.25 242.02-31.38 241.5-32.5 240.95-33.2L240.95-33.2 240.45-33.9 240.6-34.65Q243.4-35.5 250.25-35.5L250.25-35.5Q250.9-34.3 250.9-32.08 250.9-29.85 248.4-19.55L248.4-19.55 248.65-19.55Q253.1-19.55 255.02-22.93 256.95-26.3 257.9-34.3L257.9-34.3Q261.45-35.5 265.35-35.5L265.35-35.5Q265.45-35.15 265.42-33.8 265.4-32.45 264.9-30.33 264.4-28.2 263.42-25.85 262.45-23.5 260.57-21.43 258.7-19.35 256.25-18.1L256.25-18.1Q259.15-8.2 261.25-5.2L261.25-5.2Q262.15-3.95 262.65-3.95L262.65-3.95Q263.55-3.95 265.45-4.85L265.45-4.85 266.05-5.15 267.2-3.3Q265.35-1.6 262.92-0.5 260.5 0.6 258.35 0.6 256.2 0.6 254.97-1.1 253.75-2.8 252.92-5.33 252.1-7.85 251.2-11.3 250.3-14.75 250-16.5L250-16.5Q249.55-16.45 247.65-16.45L247.65-16.45Q244.7-3.95 244.7-0.8L244.7-0.8Q242.75 0.2 237.8 0.2ZM282.33 0.6L282.33 0.6Q278.83 0.6 275.63-1.4L275.63-1.4Q274.03-2.4 273.01-4.2 271.98-6 271.98-8.35L271.98-8.35Q271.98-12.8 274.93-15.6 277.88-18.4 282.03-18.85L282.03-18.85Q279.23-19.6 277.56-21.45 275.88-23.3 275.88-26.15L275.88-26.15Q275.88-30.45 279.26-32.98 282.63-35.5 286.98-35.5 291.33-35.5 294.23-33.65 297.13-31.8 297.13-28.65L297.13-28.65Q297.13-27.55 296.76-26.5 296.38-25.45 295.98-25L295.98-25 295.63-24.5Q294.03-24.5 292.11-25.05 290.18-25.6 289.28-26.45L289.28-26.45 289.88-31.6Q289.13-32.35 287.36-32.35 285.58-32.35 284.56-30.53 283.53-28.7 283.53-26.35 283.53-24 284.08-22.8 284.63-21.6 285.63-20.95L285.63-20.95Q287.18-19.95 289.28-19.55L289.28-19.55 288.88-16.8Q285.28-16.8 282.63-14.68 279.98-12.55 279.98-9.05L279.98-9.05Q279.98-6.85 281.41-5.43 282.83-4 285.08-4L285.08-4Q289.18-4 293.48-8.15L293.48-8.15 295.48-6.3Q289.68 0.6 282.33 0.6ZM317.09 9.1Q314.92 10.45 313.24 10.83 311.57 11.2 309.62 11.2 307.67 11.2 306.29 10.05 304.92 8.9 304.92 7 304.92 5.1 306.19 3.55 307.47 2 309.27 1.1L309.27 1.1Q312.92-0.8 315.92-1.4L315.92-1.4 317.22-1.65Q317.27-1.85 317.82-3.65 318.37-5.45 318.62-6.45L318.62-6.45Q312.27-2.65 308.17-2.65L308.17-2.65Q305.72-2.65 304.12-4.23 302.52-5.8 302.52-8.72 302.52-11.65 304.42-19.28 306.32-26.9 306.32-29.45L306.32-29.45Q306.32-31.1 304.82-33.2L304.82-33.2 304.32-33.9 304.47-34.65Q307.47-35.5 313.72-35.5L313.72-35.5Q314.42-34 314.42-31.45 314.42-28.9 312.52-20.68 310.62-12.45 310.62-11.15L310.62-11.15Q310.62-8.5 312.42-8.5L312.42-8.5Q315.82-8.5 319.67-10.45L319.67-10.45Q322.72-23 323.82-34.15L323.82-34.15Q326.37-35.45 330.82-35.45L330.82-35.45 331.77-35.45Q331.77-32.8 330.87-28.1L330.87-28.1Q329.72-22.15 327.32-10.1L327.32-10.1Q326.27-4.7 324.57-0.68 322.87 3.35 321.07 5.55 319.27 7.75 317.09 9.1ZM309.62 7.85L309.62 7.85Q311.37 7.85 313.27 5.93 315.17 4 316.37 1.35L316.37 1.35Q314.02 1.6 311.09 3.18 308.17 4.75 308.17 6.4L308.17 6.4Q308.17 7 308.59 7.43 309.02 7.85 309.62 7.85Z" opacity="1" transform="matrix(1,0,0,1,0,0)" fill="#000000" class="undefined-text-1" data-fill-palette-color="quaternary" id="text-1"></path></svg></g></svg></g></svg></g></svg></g><g></g></svg></g></svg></g></svg></g></svg></g><defs></defs></svg><rect width="342.85155851775386" height="342.85155851775386" fill="none" stroke="none" visibility="hidden"></rect></g></svg></g></svg>